<svg xmlns="http://www.w3.org/2000/svg" width="325" height="74"><g fill="#fff"><path d="M117.616 47.459a8.85 8.85 0 0 0 4.337-1.1 11.81 11.81 0 0 0 3.639-3.241l5.633 5.334c-1.62 2.067-3.703 3.723-6.082 4.835-2.433 1.208-5.111 1.84-7.827 1.845a18.93 18.93 0 0 1-7.278-1.4 18.03 18.03 0 0 1-5.833-3.788 17.78 17.78 0 0 1-5.284-12.762c-.016-2.439.467-4.855 1.421-7.1a17.4 17.4 0 0 1 3.888-5.708 18.42 18.42 0 0 1 5.833-3.789c2.301-.943 4.766-1.419 7.253-1.4a18.32 18.32 0 0 1 8.026 1.844 16.21 16.21 0 0 1 6.132 4.935l-5.783 5.484c-1.006-1.417-2.307-2.599-3.814-3.465a9.28 9.28 0 0 0-4.561-1.172c-1.306-.011-2.599.262-3.789.8a9.39 9.39 0 0 0-3.016 2.169 9.93 9.93 0 0 0-1.994 3.29 11.59 11.59 0 0 0-.723 4.112 11.03 11.03 0 0 0 .748 4.088c.467 1.215 1.17 2.325 2.069 3.266.884.917 1.944 1.646 3.116 2.143 1.229.525 2.553.79 3.889.78zm15.637-5.633a13.55 13.55 0 0 1 1.022-5.285c.648-1.579 1.606-3.011 2.817-4.213a13.19 13.19 0 0 1 4.262-2.791c1.685-.689 3.489-1.036 5.309-1.022a13.95 13.95 0 0 1 5.33 1.027 13.13 13.13 0 0 1 4.287 2.791 12.77 12.77 0 0 1 2.816 4.213 13.57 13.57 0 0 1 1.022 5.285 13.26 13.26 0 0 1-1.047 5.284c-1.331 3.192-3.89 5.714-7.1 7a14.3 14.3 0 0 1-10.618 0 12.83 12.83 0 0 1-7.079-7.054 13.41 13.41 0 0 1-1.021-5.235zm13.41 6.48a5.06 5.06 0 0 0 4.013-1.82 6.88 6.88 0 0 0 1.57-4.661 7.08 7.08 0 0 0-1.57-4.711 5.01 5.01 0 0 0-4.013-1.869 4.94 4.94 0 0 0-3.988 1.869c-1.061 1.336-1.609 3.007-1.545 4.711-.07 1.69.48 3.347 1.545 4.661a4.99 4.99 0 0 0 3.988 1.821zm26.87 6.285a9.98 9.98 0 0 1-4.437-1.022 11.33 11.33 0 0 1-3.614-2.767 13.42 13.42 0 0 1-2.418-4.112 14.15 14.15 0 0 1-.9-5.06c-.014-1.722.299-3.43.922-5.035.583-1.511 1.446-2.898 2.543-4.088 1.075-1.16 2.372-2.092 3.814-2.742a11.19 11.19 0 0 1 4.686-1 9.05 9.05 0 0 1 6.98 3.24v-3.091h7.926v26.077a9.59 9.59 0 0 1-3.515 7.977q-3.514 2.791-10.045 2.791a26.34 26.34 0 0 1-5.633-.6 23 23 0 0 1-5.035-1.695l2.493-5.833c1.314.624 2.682 1.126 4.088 1.5a15.24 15.24 0 0 0 3.789.5 6.81 6.81 0 0 0 4.337-1.2 4.26 4.26 0 0 0 1.5-3.54v-3.689c-.874 1.063-1.983 1.908-3.24 2.468a9.97 9.97 0 0 1-4.241.921zm-3.44-12.912c-.045 1.682.594 3.309 1.77 4.512a5.84 5.84 0 0 0 4.362 1.82c1.814.032 3.555-.712 4.786-2.044v-8.576c-.622-.625-1.358-1.124-2.169-1.471-.827-.351-1.718-.529-2.617-.523a5.86 5.86 0 0 0-4.387 1.795c-1.164 1.197-1.793 2.815-1.745 4.484zm22.642 12.963V28.919h8.076v4.188c.901-1.404 2.123-2.575 3.564-3.415a9.1 9.1 0 0 1 4.561-1.171 8.17 8.17 0 0 1 6.132 2.468c1.615 1.694 2.477 3.967 2.393 6.306v17.347h-8.076v-15.01a5.03 5.03 0 0 0-1.172-3.464 3.96 3.96 0 0 0-3.118-1.326c-.819-.01-1.63.169-2.368.524a5.48 5.48 0 0 0-1.919 1.62v17.656zm36.491-25.729v25.724h-8.076V28.913zm0-9.9v6.647h-8.076v-6.647zm6.17 27.698V35.146h-3.461v-6.231h3.461v-7.129l8.076-1.645v8.774h6.88v6.231h-6.88v9.97c-.091.871.19 1.739.773 2.392a3.88 3.88 0 0 0 2.618.7 9.73 9.73 0 0 0 1.4-.1 14.49 14.49 0 0 0 1.895-.448v6.53a16.65 16.65 0 0 1-2.692.573 20.56 20.56 0 0 1-2.842.224q-4.537 0-6.879-2.094-2.342-2.094-2.349-6.182zm17.668 7.927V28.914h8.076v5.833a12.53 12.53 0 0 1 2.966-4.761c1.084-1.022 2.523-1.585 4.013-1.57a8.88 8.88 0 0 1 1.4.174 6.74 6.74 0 0 1 1.3.474v6.929a8.59 8.59 0 0 0-1.745-.573 9.28 9.28 0 0 0-2.044-.224c-1.178-.005-2.337.296-3.365.872a7.04 7.04 0 0 0-2.518 2.318v16.252zm28.416.404a9.37 9.37 0 0 1-6.381-2.169 7.09 7.09 0 0 1-2.493-5.608c-.096-2.163.896-4.23 2.642-5.509q2.642-1.969 7.378-1.969a15.23 15.23 0 0 1 2.842.274 18.62 18.62 0 0 1 3.141.922v-2.094c.067-1.084-.409-2.131-1.271-2.792a6.36 6.36 0 0 0-3.814-.947c-1.085.016-2.164.158-3.216.424a26.24 26.24 0 0 0-4.013 1.371l-2.792-5.634c1.951-.881 3.979-1.582 6.057-2.094a24.7 24.7 0 0 1 5.758-.7q5.334 0 8.3 2.542a8.88 8.88 0 0 1 2.966 7.129v16.454h-7.978v-2.243a11.8 11.8 0 0 1-3.39 2.019c-1.199.427-2.464.638-3.736.624zm-1.446-7.927a2.15 2.15 0 0 0 1.047 1.92c.88.494 1.883.728 2.891.673a9 9 0 0 0 2.418-.325 8.5 8.5 0 0 0 2.218-.972v-3.29q-1.1-.249-2.218-.4a16.81 16.81 0 0 0-2.219-.15 5.98 5.98 0 0 0-3.065.648 2.08 2.08 0 0 0-1.072 1.891zm20.239 7.527V28.919h8.076v4.188a10.55 10.55 0 0 1 3.564-3.415 9.1 9.1 0 0 1 4.561-1.171 8.17 8.17 0 0 1 6.132 2.468c1.615 1.694 2.477 3.967 2.393 6.306v17.347h-8.076v-15.01a5.03 5.03 0 0 0-1.172-3.464 3.96 3.96 0 0 0-3.116-1.322c-.819-.01-1.63.169-2.368.524a5.48 5.48 0 0 0-1.919 1.62v17.652z"/><rect width="74" height="74" rx="7.5"/></g><g fill="#010101"><circle cx="14.913" cy="15.319" r="5.704"/><circle cx="29.702" cy="15.319" r="5.704"/><circle cx="44.28" cy="15.319" r="5.704"/><circle cx="59.07" cy="15.319" r="5.704"/><circle cx="14.913" cy="30.108" r="5.704"/><circle cx="29.702" cy="30.108" r="5.704"/><circle cx="44.28" cy="30.108" r="5.704"/><circle cx="59.07" cy="30.108" r="5.704"/><circle cx="14.913" cy="44.686" r="5.704"/><circle cx="44.28" cy="44.686" r="5.704"/><circle cx="59.07" cy="44.686" r="5.704"/><circle cx="14.913" cy="59.476" r="5.704"/><circle cx="29.702" cy="59.476" r="5.704"/><circle cx="44.28" cy="59.476" r="5.704"/><circle cx="59.07" cy="59.476" r="5.704"/></g><circle cx="29.702" cy="44.686" r="5.704" fill="#3284e2"/></svg>
