<?xml version="1.0" encoding="utf-8"?>
<!-- Generator: Adobe Illustrator 24.0.1, SVG Export Plug-In . SVG Version: 6.00 Build 0)  -->
<svg version="1.1" id="Warstwa_1" xmlns="http://www.w3.org/2000/svg" xmlns:xlink="http://www.w3.org/1999/xlink" x="0px" y="0px"
	 viewBox="0 0 1286.7 234.8" style="enable-background:new 0 0 1286.7 234.8;" xml:space="preserve">
<style type="text/css">
	._x005B_Domyślny_x005D_{fill:#FFFFFF;stroke:#231F20;stroke-miterlimit:10;}
	.Dodaj_x0020_cień{fill:none;}
	.Okrągłe_x0020_narożniki_x0020__x0028_2_x0020_pkt_x002E__x0029_{fill:#FFFFFF;stroke:#231F20;stroke-miterlimit:10;}
	.Aktywne_x0020_odbicie_x0020_X{fill:none;}
	.Miękka_x0020_faza{fill:url(#SVGID_1_);}
	.Zmierzch{fill:#FFFFFF;}
	.Foliage_GS{fill:#FFDD00;}
	.Pompadour_GS{fill-rule:evenodd;clip-rule:evenodd;fill:#44ADE2;}
	.st0{fill:#FFFFFF;}
	.st1{fill:#00C65E;}
	.st2{fill:none;stroke:#3C2415;stroke-miterlimit:10;}
</style>
<linearGradient id="SVGID_1_" gradientUnits="userSpaceOnUse" x1="14.3876" y1="-182.9661" x2="15.0947" y2="-182.259">
	<stop  offset="0" style="stop-color:#DEDFE3"/>
	<stop  offset="0.1783" style="stop-color:#DADBDF"/>
	<stop  offset="0.3611" style="stop-color:#CECFD3"/>
	<stop  offset="0.546" style="stop-color:#B9BCBF"/>
	<stop  offset="0.7324" style="stop-color:#9CA0A2"/>
	<stop  offset="0.9181" style="stop-color:#787D7E"/>
	<stop  offset="1" style="stop-color:#656B6C"/>
</linearGradient>
<g>
	<g>
		<path class="st0" d="M515.6,56H544l-42.5,123.3h-22.1l-29.2-84.4l-28.5,84.4h-22.1L356.8,56h30.6l23.8,81.1L438.3,56H463
			l28.1,80.7L515.6,56z"/>
		<path class="st0" d="M568.9,139.7c0.8,5.5,3.5,9.9,8,13.3s11.1,5,19.7,5c7.3,0,13.2-0.8,17.6-2.7c4.5-1.8,8.3-3.9,11.5-6.3
			l-2.1,24.8c-2.5,1.8-6.6,3.5-12.2,5.3c-5.6,1.8-12.6,2.7-21.1,2.7c-7.4,0-14.3-1-20.3-3.1c-6.2-2.1-11.3-5-15.5-8.8
			c-4.3-3.8-7.7-8.4-9.9-14c-2.4-5.5-3.5-11.8-3.5-18.6c0-6.9,1.3-13.4,3.8-19.3c2.5-6,6-11.1,10.5-15.4c4.5-4.3,9.8-7.7,16-10.1
			c6.2-2.4,12.9-3.6,20.1-3.6c6.3,0,11.8,0.7,16.4,2.2c4.6,1.5,8.4,3.6,11.5,6.3s5.3,5.7,6.7,9.4c1.5,3.5,2.2,7.3,2.2,11.2
			c0,9.4-3.2,16.6-9.7,21.7c-6.4,5.2-15,7.7-25.7,7.7c-5.3,0-10.1-0.7-14.3-2C574.2,144,571.1,142.2,568.9,139.7z M591,111.4
			c-5,0-9.7,1.5-13.7,4.8c-4.2,3.2-6.9,7.8-8,13.9c11.3,0.3,19.3-0.6,24.2-2.7c4.9-2,7.3-4.9,7.3-8.5c0-2.5-0.8-4.5-2.7-5.7
			C596.4,112.1,594.1,111.4,591,111.4z"/>
		<path class="st0" d="M700.3,89.1c6.2,0,11.9,1.1,17.3,3.5c5.3,2.2,10.1,5.6,14,9.7c3.9,4.2,7.1,9.1,9.4,14.6
			c2.2,5.6,3.5,11.6,3.5,18.2c0,6.6-1.1,12.6-3.5,18.2c-2.4,5.6-5.5,10.5-9.4,14.6c-3.9,4.2-8.7,7.4-14,9.7s-11.2,3.5-17.3,3.5
			c-6,0-11.6-1-16.8-3.1c-5.2-2.1-9.7-5-13.6-9.1l-1.1,10.4h-22.1V54.4l27.8-1.4v44.2C681.8,91.8,690.3,89.1,700.3,89.1z
			 M695.5,156.2c6.2,0,11.2-2,15-6s5.7-9.1,5.7-15.1c0-6-2-11.1-5.7-15.1c-3.8-4.1-8.8-6-15-6c-3.1,0-5.9,0.6-8.4,1.7
			c-2.5,1.1-4.8,2.7-6.6,4.5c-1.8,2-3.4,4.2-4.3,6.7c-1,2.5-1.5,5.3-1.5,8.3c0,2.9,0.6,5.7,1.5,8.3c1,2.5,2.5,4.8,4.3,6.7
			c1.8,2,4.1,3.5,6.6,4.5C689.5,155.7,692.4,156.2,695.5,156.2z"/>
		<g>
			<path class="st1" d="M900.3,56h28.4l-42.5,123.3h-22.1l-29.2-84.4l-28.7,84.4h-22.1L741.4,56H772l23.8,81.1L823,56h24.6
				l28.1,80.7L900.3,56z"/>
		</g>
		<g>
			<path class="st1" d="M1030.3,159.2c2,0,3.4-0.3,4.5-1l-1.7,21c-1.5,0.4-3.6,0.7-6.2,1.1c-2.5,0.4-4.9,0.6-7.1,0.6
				c-10.1,0-17.1-3.4-21-10.2c-3.9,3.5-8.4,6.2-13.4,8c-4.9,1.8-10.2,2.8-15.8,2.8c-6.2,0-11.9-1.1-17.2-3.5s-9.9-5.6-14-9.8
				c-3.9-4.2-7.1-9.1-9.4-14.7c-2.2-5.6-3.4-11.8-3.4-18.5c0-6.7,1.1-12.9,3.4-18.5c2.2-5.6,5.3-10.5,9.4-14.7
				c3.9-4.2,8.7-7.4,14-9.7s11.1-3.5,17.2-3.5c11.3,0,20.8,3.5,28.8,10.4l1.4-8.3h23.6V152c0,2.5,0.6,4.5,1.8,5.6
				C1026.4,158.7,1028.1,159.2,1030.3,159.2z M975.3,156.4c6,0,10.9-2,14.8-5.9c3.8-3.9,5.7-9.1,5.7-15.5c0-6.4-2-11.6-5.7-15.5
				c-3.8-3.9-8.8-5.9-14.8-5.9c-6,0-10.9,2-14.8,5.9c-3.8,3.9-5.7,9.1-5.7,15.5c0,6.4,2,11.6,5.7,15.5
				C964.3,154.5,969.3,156.4,975.3,156.4z"/>
		</g>
		<g>
			<path class="st1" d="M1110.1,90.8h29.9l-40.2,88.7h-22.2l-39.2-87.7l30.2-2.1l11.8,29.4c1.4,3.5,3.1,7.8,4.8,13
				c1.8,5.2,3.4,11.2,4.8,17.8c1.4-6.9,2.9-12.9,4.5-17.8c1.5-4.9,3.2-9.2,4.8-13L1110.1,90.8z"/>
		</g>
		<g>
			<path class="st1" d="M1171.6,139.7c0.8,5.5,3.5,9.9,8,13.3c4.5,3.4,11.1,5,19.7,5c7.3,0,13.2-0.8,17.6-2.7
				c4.5-1.8,8.3-3.9,11.5-6.3l-2.1,24.8c-2.5,1.8-6.6,3.5-12.2,5.3s-12.6,2.7-21.1,2.7c-7.4,0-14.3-1-20.3-3.1
				c-6.2-2.1-11.3-5-15.5-8.8c-4.3-3.8-7.7-8.4-9.9-14c-2.4-5.5-3.5-11.8-3.5-18.6c0-6.9,1.3-13.4,3.8-19.3c2.5-6,6-11.1,10.5-15.4
				c4.5-4.3,9.8-7.7,16-10.1c6.2-2.4,12.9-3.6,20.1-3.6c6.3,0,11.8,0.7,16.4,2.2s8.4,3.6,11.5,6.3s5.3,5.7,6.7,9.4
				c1.5,3.5,2.2,7.3,2.2,11.2c0,9.4-3.2,16.6-9.7,21.7c-6.4,5.2-15,7.7-25.7,7.7c-5.3,0-10.1-0.7-14.3-2
				C1176.9,144,1173.9,142.2,1171.6,139.7z M1193.7,111.4c-5,0-9.7,1.5-13.7,4.8c-4.2,3.2-6.9,7.8-8,13.9
				c11.3,0.3,19.3-0.6,24.2-2.7c4.9-2,7.3-4.9,7.3-8.5c0-2.5-0.8-4.5-2.7-5.7C1199.3,112.1,1196.8,111.4,1193.7,111.4z"/>
		</g>
	</g>
</g>
<line class="st2" x1="165.9" y1="62.7" x2="165.9" y2="62.7"/>
<g>
	<path class="st1" d="M296.3,86.6c4.7-4.7,6.3-11.4,4.8-17.5c-0.5-2.1-1.4-4.1-2.7-6c-0.6-0.9-1.3-1.7-2.1-2.5
		c-2.2-2.2-4.8-3.7-7.6-4.6c-3.7-1.1-7.6-1.1-11.3,0.2c-2.6,0.9-5,2.3-7.1,4.4c-0.9,0.9-1.7,1.9-2.4,3c-1.2,1.9-2.1,3.9-2.5,6.1
		c-1.3,5.9,0.4,12.3,4.9,16.9C277.5,93.7,289.1,93.7,296.3,86.6z"/>
</g>
<path class="st0" d="M154.9,71.8c0,0,12.5-16.4,32.3-16.4c33,0,59.4,61.9,103.3,60.3c0,0-6.4,22.9-30.8,22.9
	C220.1,138.6,180.4,65.1,154.9,71.8z"/>
<path class="st0" d="M57.9,96.6c0,0,1.7-41.7,41.2-41.7c35.9,0,63.2,37,91.7,62.2c20.8,18.3,39.5,37.2,68.2,37.2
	c0,0-8.3,24.7-35.3,24.7c-22.5,0-40.7-20.1-65-41.4C116.7,100.9,97.4,72.4,57.9,96.6z"/>
<path class="st0" d="M55,127.8c0,0,8.4-21.1,32.6-21.1c27.6,0,59.5,60.4,82.1,52.9c0,0-8,19.5-29.2,19.5
	C103,179.1,94.5,122.3,55,127.8z"/>
</svg>
